<svg xmlns="http://www.w3.org/2000/svg"
     viewBox="-25 -10 760 410"
     id="buddy-system"
>
    <g class="on-center" pointer-events="none">
        <path fill="#788492"
              d="m43.42 134.35 1.79-1.06q1.8-1.07 4.19-1.98l5.7-2.17 7.59-2.83q4.24-1.57 9.37-3.44 5.14-1.87 11.15-4t12.84-4.49q6.82-2.35 14.44-4.9t15.96-5.24q8.35-2.69 17.38-5.48 9.03-2.8 18.68-5.66 9.66-2.85 19.87-5.72t20.9-5.73q10.7-2.85 21.82-5.64t22.56-5.48q11.44-2.7 23.14-5.27 11.7-2.56 23.57-4.98 11.86-2.4 23.8-4.65 11.95-2.23 23.89-4.27 11.93-2.04 23.76-3.88 11.84-1.84 23.49-3.47t23.02-3.04 22.37-2.63q11-1.2 21.57-2.22t20.59-1.85q10.04-.83 19.47-1.49 9.43-.64 18.19-1.15t16.78-.9q8.02-.38 15.25-.65 7.22-.27 13.59-.45 6.37-.19 11.83-.3 5.47-.13 10-.19 4.54-.07 8.09-.1 3.56-.04 6.12-.05l4.63-.03q2.06 0 2.6.08.54.1 1.02.34.48.26.86.65.38.4.6.9.24.5.3 1.03t-.06 1.07q-.11.53-.4 1t-.7.82q-.4.36-.91.56-.51.21-1.05.24-.55.03-1.07-.12-.53-.14-.98-.45-.46-.3-.8-.73-.32-.44-.5-.96-.17-.5-.17-1.05t.17-1.06.5-.96q.33-.43.78-.74t.98-.45q.52-.15 1.07-.12.54.02 1.05.22t.93.56q.4.35.7.82.28.46.4 1 .12.53.06 1.06-.06.55-.3 1.04-.21.5-.6.9-.36.4-.84.65-.5.26-1.02.35l-.54.1h-2.05l-4.6.01-6.1.05-8.04.1q-4.51.07-9.95.2-5.45.11-11.8.3-6.33.18-13.52.45-7.18.27-15.17.65-8 .37-16.71.88t-18.11 1.17q-9.4.65-19.37 1.48-10 .82-20.51 1.83t-21.47 2.22q-10.96 1.2-22.28 2.61t-22.92 3.03-23.38 3.45q-11.8 1.83-23.67 3.86-11.87 2.03-23.77 4.26-11.9 2.22-23.71 4.63-11.81 2.4-23.46 4.96-11.65 2.55-23.05 5.23-11.4 2.7-22.46 5.47t-21.72 5.62q-10.65 2.83-20.82 5.7t-19.78 5.7q-9.62 2.84-18.61 5.62-9 2.8-17.3 5.47-8.32 2.68-15.9 5.21t-14.4 4.9q-6.8 2.34-12.77 4.46t-11.1 3.98q-5.11 1.86-9.34 3.43-4.22 1.56-7.54 2.82l-5.71 2.16q-2.38.91-4.42 1.31l-2.36.48q-.32.08-.64.08t-.63-.07q-.31-.08-.6-.23-.28-.14-.52-.36-.25-.2-.43-.47-.18-.27-.3-.57-.11-.3-.15-.62t0-.64q.03-.32.15-.62.1-.3.29-.56.18-.27.42-.48.24-.22.53-.37z"/>
        <path fill="none" stroke="#788492" stroke-linecap="round" stroke-linejoin="round" stroke-width="6.66"
              d="m588 18.37 24.27 13.97-24.24 14.03"/>
    </g>
    <g class="on-center" pointer-events="none">
        <path fill="#788492"
              d="m37.43 250.64 1.96-1.11q1.97-1.11 4.59-2l6.26-2.12q3.64-1.22 8.28-2.71 4.63-1.49 10.24-3.21 5.6-1.73 12.15-3.63t13.96-3.91 15.67-4.07 17.25-4.1q9-2.05 18.68-4 9.68-1.96 19.96-3.78 10.28-1.81 21.06-3.42 10.78-1.6 21.96-2.96 11.19-1.37 22.66-2.44 11.48-1.06 23.15-1.81t23.4-1.18q11.73-.42 23.42-.49 11.69-.08 23.22.17t22.79.81q11.25.55 22.12 1.4 10.88.84 21.25 1.9 10.38 1.08 20.18 2.34 9.8 1.27 18.93 2.66 9.13 1.4 17.5 2.86 8.37 1.47 15.92 2.95t14.2 2.91q6.67 1.42 12.39 2.75 5.73 1.33 10.47 2.49t8.46 2.11l6.4 1.66 4.84 1.3q2.15.58 2.65.81t.89.6q.4.37.66.85.26.49.35 1.02.09.54 0 1.08-.08.54-.34 1.02-.25.49-.65.87-.4.37-.88.6-.5.23-1.04.3-.54.06-1.08-.06-.53-.11-1-.39t-.83-.7q-.35-.41-.55-.92-.21-.5-.24-1.05-.03-.54.1-1.07.16-.53.46-.98t.74-.79q.43-.33.95-.5.5-.18 1.06-.18.55-.01 1.06.17.52.17.96.5.43.33.74.78t.46.97q.15.53.12 1.07-.03.55-.23 1.06t-.55.92q-.35.42-.82.7-.46.29-1 .41-.53.12-1.07.06l-.55-.06-2.13-.57-4.78-1.28q-2.65-.71-6.34-1.65-3.7-.95-8.4-2.1t-10.35-2.46q-5.67-1.31-12.27-2.73-6.6-1.41-14.1-2.88t-15.78-2.92q-8.3-1.46-17.34-2.84-9.05-1.39-18.76-2.64-9.72-1.26-20.01-2.32-10.3-1.07-21.07-1.91-10.78-.83-21.95-1.39-11.16-.55-22.6-.8t-23.01-.18q-11.6.08-23.23.5-11.64.41-23.21 1.16t-22.95 1.81q-11.4 1.06-22.48 2.4-11.1 1.35-21.8 2.95-10.68 1.59-20.88 3.39-10.2 1.79-19.8 3.73-9.6 1.95-18.53 3.97-8.93 2.03-17.11 4.07t-15.54 4.04-13.85 3.88-12.06 3.59q-5.57 1.72-10.16 3.2-4.6 1.48-8.22 2.69l-6.22 2.09q-2.6.89-4.82 1.25-2.23.36-2.53.43-.31.07-.62.06t-.61-.09-.57-.24q-.28-.15-.5-.36-.23-.21-.4-.47t-.27-.56q-.11-.29-.14-.6t.02-.62q.04-.31.16-.59.12-.29.3-.54.19-.26.42-.46.24-.2.52-.33z"/>
        <path fill="none" stroke="#788492" stroke-linecap="round" stroke-linejoin="round" stroke-width="6.66"
              d="m507.75 217.53 19.76 19.85-27.07 7.18"/>
    </g>
    <g class="on-center" pointer-events="none">
        <path fill="#788492"
              d="m38.45 353.98 1.84-.91 3.69-1.35 4.6-1.11q2.75-.66 6.58-1.62t8.92-2.27 11.6-3.06 14.65-4.05q8.12-2.29 17.98-5.25 9.87-2.95 21.63-6.72 11.76-3.78 25.55-8.55 13.79-4.76 29.72-10.76 15.94-5.99 34.09-13.47 18.15-7.49 37.92-16.45 19.77-8.97 37.35-17.69 17.57-8.73 32.57-16.76 14.99-8.04 27.66-15.27t23.25-13.59q10.59-6.36 19.3-11.83 8.72-5.47 15.79-10.07 7.07-4.59 12.68-8.34t9.95-6.72q4.33-2.96 7.57-5.2l5.57-3.89 3.86-2.72 3.07-2.18q1.53-1.09 2-1.36.47-.28 1-.39.54-.11 1.08-.04t1.04.3q.49.24.88.62t.64.87q.25.48.33 1.02t-.02 1.08q-.1.54-.36 1.02t-.66.84q-.4.37-.9.6-.5.22-1.04.27-.55.05-1.08-.07-.53-.13-1-.42-.46-.29-.8-.71-.35-.42-.55-.93-.2-.51-.21-1.05-.02-.55.13-1.07.15-.53.47-.98.3-.44.75-.77.44-.32.96-.49.52-.16 1.06-.16.55.01 1.06.19.52.19.95.52.43.34.73.8.3.45.44.98t.1 1.07q-.04.55-.25 1.05-.21.51-.57.92t-.36.41-1.72 1.23q-1.72 1.24-3.28 2.34-1.55 1.11-3.9 2.74-2.32 1.64-5.58 3.9-3.27 2.27-7.64 5.26-4.36 2.98-10.01 6.75t-12.76 8.4q-7.11 4.62-15.88 10.13-8.78 5.51-19.42 11.91-10.65 6.4-23.4 13.67t-27.84 15.35q-15.08 8.09-32.77 16.86-17.68 8.78-37.56 17.79-19.88 9.02-38.13 16.53-18.25 7.52-34.26 13.55-16.02 6.02-29.88 10.82-13.86 4.79-25.7 8.58-11.82 3.8-21.73 6.77-9.92 2.96-18.08 5.27-8.16 2.3-14.71 4.06t-11.68 3.08q-5.11 1.32-8.96 2.28t-6.62 1.64l-4.62 1.11q-1.85.44-3.9.45t-2.34.04q-.3.03-.6-.01-.28-.03-.56-.14-.27-.11-.51-.28t-.44-.39q-.2-.22-.33-.49-.13-.26-.2-.55-.07-.28-.06-.58 0-.29.07-.58.08-.28.22-.54.13-.26.33-.48t.44-.39q.25-.16.53-.26z"/>
        <path fill="none" stroke="#788492" stroke-linecap="round" stroke-linejoin="round" stroke-width="6.66"
              d="m438.75 163.28 27.87-2.75-11.56 25.5"/>
    </g>
    <g class="on-center" pointer-events="none">
        <path fill="#788492"
              d="m44.46 37.41 2.02-.69q2.03-.69 4.62-1.09l6.2-.93 8.23-1.16q4.6-.63 10.15-1.33 5.57-.69 12.05-1.42t13.84-1.44q7.36-.7 15.54-1.34t17.12-1.17q8.93-.53 18.56-.9 9.62-.38 19.87-.55 10.24-.17 21-.1t21.99.42q11.22.35 22.78 1.01 11.57.66 23.38 1.63t23.78 2.3q11.97 1.3 24 2.95 12.02 1.65 23.99 3.62t23.8 4.25q11.82 2.28 23.4 4.83t22.82 5.33q11.25 2.8 22.07 5.76 10.82 2.98 21.13 6.1 10.32 3.1 20.06 6.28 9.73 3.2 18.82 6.38 9.09 3.2 17.48 6.35 8.38 3.15 16 6.18t14.46 5.87q6.82 2.85 12.8 5.46 5.99 2.61 11.1 4.92t9.33 4.27q4.22 1.97 7.52 3.54t5.66 2.72l4.26 2.08q1.9.94 2.34 1.25.45.32.77.76t.48.96q.17.52.15 1.07-.01.55-.2 1.06-.18.51-.52.94t-.8.73q-.46.3-.98.43-.53.13-1.08.1-.54-.05-1.05-.26-.5-.22-.91-.58-.4-.36-.68-.84-.27-.47-.37-1-.11-.54-.04-1.08t.3-1.03.64-.88q.38-.39.87-.64.49-.24 1.03-.32t1.07.02q.54.1 1.02.37.47.27.84.67.37.41.59.91.2.5.26 1.04t-.08 1.08q-.13.53-.42 1t-.72.8q-.42.34-.93.53t-1.06.21q-.54.02-1.07-.14l-.52-.16-1.88-.93-4.23-2.07-5.62-2.7q-3.27-1.56-7.45-3.5-4.18-1.95-9.25-4.24t-11.01-4.88q-5.93-2.59-12.7-5.4-6.77-2.84-14.34-5.85t-15.9-6.13q-8.3-3.12-17.32-6.29-9.02-3.18-18.7-6.34-9.65-3.16-19.88-6.25-10.24-3.08-20.98-6.03-10.74-2.96-21.9-5.72-11.15-2.77-22.64-5.3t-23.23-4.79q-11.73-2.26-23.61-4.22t-23.82-3.6q-11.93-1.64-23.81-2.95-11.88-1.3-23.61-2.27-11.73-.98-23.2-1.63-11.48-.65-22.61-1-11.14-.35-21.83-.42t-20.86.1q-10.16.17-19.72.54-9.55.36-18.43.9-8.87.52-17 1.16-8.11.63-15.42 1.34-7.31.7-13.75 1.42t-11.96 1.42q-5.52.7-10.1 1.32-4.56.62-8.14 1.15-3.6.52-6.17.92-2.6.4-4.72.37-2.14-.03-2.46-.02t-.63-.05q-.31-.07-.6-.2-.3-.14-.54-.34-.24-.2-.43-.46-.2-.26-.32-.55-.12-.3-.17-.6-.05-.33-.03-.65.03-.3.13-.62.1-.3.28-.57t.4-.49.5-.38.59-.24z"/>
        <path fill="none" stroke="#788492" stroke-linecap="round" stroke-linejoin="round" stroke-width="6.66"
              d="m574.1 100.76 15.6 23.25-27.93 1.88"/>
    </g>
    <g class="on-center" pointer-events="none">
        <path fill="#788492"
              d="m39.8 360.86 2.33.06q2.32.07 5.1.6l6.67 1.25q3.88.71 8.8 1.58 4.92.87 10.87 1.87 5.94 1.01 12.84 2.09 6.9 1.09 14.7 2.23 7.8 1.14 16.45 2.28 8.64 1.15 18.04 2.26 9.4 1.1 19.49 2.13t20.74 1.93q10.67.91 21.83 1.67 11.15.76 22.69 1.33t23.36.94 23.8.52q12 .14 24.04.06t24.02-.39q11.99-.32 23.8-.85 11.82-.53 23.35-1.26t22.68-1.64q11.14-.91 21.79-1.97 10.65-1.05 20.7-2.22 10.08-1.17 19.46-2.4 9.38-1.24 18-2.5t16.42-2.51 14.67-2.43q6.88-1.18 12.8-2.25 5.93-1.09 10.84-2.03t8.77-1.71l6.65-1.34 5-1.04q2.25-.46 2.8-.49.54-.02 1.07.13.52.15.97.46.45.32.77.75.33.44.5.96t.16 1.07q-.01.54-.2 1.06-.17.51-.5.95-.34.43-.8.73-.45.3-.98.44-.52.14-1.07.1-.54-.03-1.05-.24-.5-.21-.91-.57-.42-.35-.7-.82-.27-.48-.38-1.01t-.05-1.08q.07-.54.3-1.03.24-.49.62-.89.38-.39.86-.64.49-.25 1.03-.33t1.08.01q.53.09 1 .36.49.26.86.66t.6.9q.22.49.27 1.04.06.54-.07 1.07-.12.54-.41 1-.28.46-.7.81t-.93.55l-.51.19-2.25.46-5.05 1.05q-2.8.58-6.68 1.35-3.9.77-8.83 1.72t-10.9 2.03q-5.95 1.09-12.88 2.28-6.92 1.19-14.75 2.44t-16.5 2.52-18.11 2.51q-9.44 1.25-19.55 2.42-10.12 1.17-20.83 2.24-10.71 1.06-21.92 1.97-11.2.91-22.8 1.65t-23.47 1.27q-11.88.53-23.92.84-12.05.32-24.16.4t-24.16-.07q-12.05-.14-23.93-.51t-23.48-.95-22.82-1.34q-11.21-.76-21.93-1.67-10.73-.92-20.86-1.95t-19.58-2.15q-9.46-1.11-18.14-2.26-8.68-1.16-16.53-2.3-7.84-1.14-14.78-2.23-6.94-1.1-12.91-2.1-5.96-1.01-10.91-1.89t-8.84-1.6-6.7-1.25q-2.8-.53-4.98-1.34-2.18-.82-2.48-.91-.3-.1-.57-.27-.26-.16-.48-.39t-.38-.5-.25-.57q-.1-.3-.11-.62-.02-.3.04-.61.07-.31.2-.6t.33-.53q.2-.25.45-.44t.54-.32q.29-.12.6-.18.3-.05.62-.03z"/>
        <path fill="none" stroke="#788492" stroke-linecap="round" stroke-linejoin="round" stroke-width="6.66"
              d="m525.2 349.46 26.62 8.7-20.85 18.7"/>
    </g>
    <g class="on-center" pointer-events="none">
        <path fill="#788492"
              d="m39.7 250.42 2.45.71q2.44.7 4.07 1.5 1.63.81 3.9 1.91 2.3 1.11 5.34 2.55 3.05 1.45 6.98 3.25 3.93 1.81 8.87 4t11.02 4.77q6.08 2.59 13.43 5.54 7.35 2.94 16.12 6.21 8.76 3.27 19.09 6.8t22.36 7.21q12.04 3.69 25.94 7.38t29.82 7.2 33.99 6.59q18.06 3.09 38.4 5.45 20.36 2.35 43.09 3.62 22.72 1.27 45.48 1.09 22.75-.17 43.18-1.55 20.43-1.37 38.6-3.58 18.2-2.22 34.26-4.96t30.1-5.75q14.07-3.02 26.26-6.12t22.67-6.12q10.48-3.03 19.38-5.87 8.9-2.84 16.38-5.43 7.48-2.59 13.67-4.87 6.2-2.28 11.24-4.24 5.03-1.95 9.04-3.57t7.13-2.91l5.44-2.28 3.99-1.71 4-1.74q2.36-1.03 2.89-1.15.54-.11 1.08-.05.54.07 1.04.3.49.23.89.61.39.38.64.86t.34 1.01q.08.54-.01 1.08t-.35 1.02-.66.85q-.4.38-.9.6-.5.23-1.03.28-.55.06-1.08-.06t-1-.41q-.46-.28-.81-.7t-.55-.93-.23-1.05q-.02-.55.13-1.07t.46-.97q.3-.45.74-.77.44-.33.96-.5t1.06-.17q.55 0 1.06.18.52.18.95.51.44.34.74.79.3.46.44.97.15.53.1 1.07-.02.55-.23 1.06-.2.5-.56.92-.35.41-.82.69t-.47.28-2.24.98l-3.92 1.71-4.04 1.73q-2.35 1-5.5 2.31-3.14 1.31-7.2 2.94t-9.14 3.61q-5.1 1.97-11.34 4.27-6.26 2.3-13.81 4.92-7.56 2.62-16.55 5.49-9 2.87-19.58 5.92-10.58 3.06-22.9 6.19t-26.51 6.16q-14.2 3.04-30.42 5.81t-34.58 4.99q-18.37 2.23-39 3.62-20.63 1.38-43.6 1.55-22.96.16-45.9-1.12-22.91-1.28-43.44-3.67-20.53-2.38-38.76-5.49-18.22-3.12-34.28-6.66t-30.08-7.27-26.16-7.44q-12.15-3.72-22.56-7.28t-19.26-6.86q-8.84-3.3-16.26-6.28-7.42-2.97-13.55-5.57-6.13-2.61-11.11-4.82-4.96-2.22-8.93-4.03-3.97-1.83-7.04-3.28-3.08-1.46-5.37-2.57l-3.95-1.92q-1.65-.81-3.7-2.34-2.02-1.52-2.27-1.68-.25-.17-.45-.39-.2-.21-.34-.47-.15-.26-.22-.55-.08-.29-.1-.58 0-.3.07-.59t.2-.55q.13-.27.32-.5.19-.22.43-.4.24-.17.52-.28.27-.11.57-.15.29-.05.59-.02.29.03.57.13z"/>
        <path fill="none" stroke="#788492" stroke-linecap="round" stroke-linejoin="round" stroke-width="6.66"
              d="m634.75 262.85 27.83 3.15-16.64 22.52"/>
    </g>
    <path fill="#ffc936" stroke="#ffc936" stroke-linecap="round" stroke-linejoin="round" stroke-width="5"
          d="m586.81 245.33-1.3 5.98q-1.29 5.96-4.92 9.31t-9.23 5.44q-5.6 2.06-12.5 1.48-6.92-.58-13.47-4.63-6.56-4.06-10.64-11.28-4.1-7.23-4.01-15.81.07-8.57 4.58-15.83 4.5-7.24 11.96-10.83 7.46-3.58 15.34-2.75 7.9.85 13.95 5.2 6.06 4.32 9.27 10.23 3.2 5.92 3.86 11.62t-.65 10.11q-1.3 4.4-3.54 6.86t-2.27 2.46q0 0 0 0l.52-2.88q.53-2.88 1.14-6.67.62-3.8.28-8.66-.35-4.86-2.93-9.97t-7.6-8.93-11.63-4.74-12.92 1.9q-6.33 2.83-10.23 8.82-3.92 5.97-4.1 13.15-.19 7.18 3.11 13.19 3.31 6.02 8.6 9.31 5.28 3.3 10.7 3.69 5.43.37 9.8-1.2 4.38-1.56 7.31-3.81t7.22-6.51z"
          class="on-right" pointer-events="none"/>
    <path fill="#7746f1" stroke="#7746f1" stroke-linecap="round" stroke-linejoin="round" stroke-width="5"
          d="m662.55 39.58-3.67 5.51q-3.67 5.5-9.04 6.71-5.36 1.2-11.67-.98-6.3-2.2-11.16-8.33-4.85-6.13-5.5-14.64-.65-8.52 4.14-15.68 4.79-7.17 13.02-9.09 8.23-1.91 15.63 2.32t10.61 12 1.64 15.15-6 11.96q-4.43 4.55-9.45 5.84-5.01 1.29-8.67-.28l-3.66-1.59q0 0 0 0l3.19-.52q3.2-.52 7.1-1.54 3.92-1.03 7.69-4.47 3.77-3.46 5.27-9.48t-.9-12.55q-2.4-6.5-8.27-10.2-5.87-3.7-12.38-2.4-6.5 1.3-10.34 6.84t-3.4 12.29q.41 6.74 4.11 11.5 3.69 4.76 8.27 6.41t8.3 1.25q3.71-.42 9.42-3.23z"
          class="on-right" pointer-events="none"/>
    <path fill="#ff9433" stroke="#ff9433" stroke-linecap="round" stroke-linejoin="round" stroke-width="5"
          d="m647.91 122.71 1.67 6q1.67 6.02.4 10.78-1.3 4.77-4.87 9.46-3.58 4.7-9.6 7.72t-13.45 2.67q-7.43-.34-14.22-4.8t-10.61-12.15-3.32-16.27q.52-8.57 5.14-15.27t11.53-9.67q6.92-2.97 13.84-2.06 6.93.9 12.2 4.41 5.25 3.52 8.36 7.95 3.1 4.43 4.06 8.59.93 4.15.35 7.03l-.6 2.87h-.01l-1.06-2.37q-1.05-2.38-2.4-5.67-1.37-3.3-3.82-7.17-2.45-3.87-6.75-7.01-4.3-3.16-10.04-4.12-5.75-.98-11.6 1.3-5.84 2.27-9.87 7.8-4.03 5.52-4.63 12.82-.61 7.28 2.5 13.89t8.65 10.42q5.55 3.83 11.54 4.2 5.97.35 10.74-2.03 4.78-2.38 7.76-6.09t4.39-7.4q1.4-3.7 2.55-9.76z"
          class="on-right" pointer-events="none"/>

    <path fill="#36b24d" stroke="#30b24d" stroke-linecap="round" stroke-linejoin="round" stroke-width="5"
          d="M38.54 369.08 35 375.46q-3.53 6.39-9.05 8.9-5.53 2.5-12.78 2.28t-14.02-4.6q-6.77-4.37-9.6-12.42-2.81-8.05.58-16.52 3.38-8.48 11.8-13.17 8.42-4.7 17.72-3.35 9.3 1.34 15.18 7.57 5.86 6.25 6.48 13.96.63 7.72-2.74 13.82t-8.32 9.31q-4.94 3.19-9.4 3.34l-4.46.13v-.01l3.4-1.81q3.38-1.81 7.46-4.58 4.07-2.77 7.11-7.7t2.8-11.32q-.2-6.37-4.87-11.7t-12.48-6.66q-7.8-1.36-15.03 2.38-7.24 3.73-10.28 10.63-3.05 6.9-.95 13.44 2.1 6.54 7.53 10.15 5.42 3.62 11.38 3.84t10.45-1.53q4.49-1.76 10.05-6.27z"
          class="on-left" pointer-events="none"/>
    <path fill="#36b24d" stroke="#36b24d" stroke-linecap="round" stroke-linejoin="round" stroke-width="5"
          d="m34.39 219.65 4.92 4.44q4.89 4.44 5.97 9.76 1.08 5.31-.54 11.6-1.64 6.3-6.67 11.69-5.05 5.38-12.79 7.42t-15.63-.8q-7.89-2.87-12.75-9.9-4.86-7.06-4.77-15.45.1-8.4 4.64-14.9 4.53-6.5 11.17-9.29 6.66-2.78 12.93-2.14t10.66 3.46q4.37 2.82 6.1 6.37l1.7 3.56v.01l-2.8-1.87q-2.8-1.87-6.47-4-3.7-2.13-8.85-2.93-5.15-.8-10.75 1.3t-9.55 7.37-4.25 12.23q-.3 6.97 3.54 12.9 3.84 5.93 10.22 8.43 6.38 2.5 12.63.98 6.24-1.53 10.26-5.77 4.03-4.25 5.32-9.2t.83-9.03q-.47-4.08-2.78-10.15z"
          class="on-left" pointer-events="none"/>
    <path fill="#36b24d" stroke="#36b24d" stroke-linecap="round" stroke-linejoin="round" stroke-width="5"
          d="m42.89 132.02 2.28 5.93q2.3 5.92.75 10.98-1.55 5.05-6.02 9.69-4.46 4.62-11.5 6.86-7.05 2.24-14.8.34-7.74-1.9-13.12-8.08-5.38-6.19-5.88-14.42-.49-8.24 4.06-15.1 4.56-6.85 11.9-9.82 7.34-2.96 14.43-1.76t11.96 5.01q4.86 3.81 6.9 8.43 2.04 4.61 1.4 8.39l-.64 3.77h-.01l-1.23-2.94q-1.22-2.95-3.02-6.57-1.8-3.63-5.61-6.99-3.8-3.36-9.64-4.56-5.85-1.2-12.04 1.04t-10.14 7.75-3.78 12.18q.19 6.68 4.38 11.74 4.2 5.06 10.38 6.68 6.18 1.62 11.78-.13 5.6-1.74 9.1-5.3t5.04-7.19q1.54-3.6 2.3-9.76z"
          class="on-left" pointer-events="none"/>
    <path fill="#36b24d" stroke="#36b24d" stroke-linecap="round" stroke-linejoin="round" stroke-width="5"
          d="m41.76 59.9-2.87 5.82-7.69 7.86q-4.8 2.04-11.1 1.27-6.3-.75-12.35-5.35-6.05-4.63-9.49-12.52-3.45-7.9-2.46-16.72.99-8.81 6.51-15.13 5.53-6.31 13.39-7.52 7.85-1.2 14.81 2.66 6.97 3.87 10.89 10.5 3.92 6.64 4.6 13.35.67 6.7-1 11.77-1.66 5.07-4.57 7.61t-2.92 2.54v-.01q-.02 0 1.09-3.11 1.09-3.12 2.23-7.45 1.14-4.35.7-10.1-.44-5.75-3.6-11.5-3.16-5.74-8.77-9.18t-11.91-2.73q-6.3.7-10.82 5.68-4.5 4.97-5.4 12.27-.9 7.3 1.89 13.84 2.78 6.55 7.48 10.2 4.72 3.65 9.32 4.33 4.61.68 8.09-.35 3.48-1.02 8.7-4.54z"
          class="on-left" pointer-events="none"/>
    <path fill="#ff2133" stroke="#ff2133" stroke-linecap="round" stroke-linejoin="round" stroke-width="5"
          d="m689.24 225.19 6.65-.7q6.66-.7 11.45 2.2 4.79 2.91 8.65 8.56 3.87 5.65 5.07 13.45t-1.85 15.8q-3.05 7.98-10.33 13.09-7.29 5.1-16.42 4.77-9.13-.34-16.44-6.2-7.31-5.9-9.98-14.79-2.66-8.9-.22-17.22t8.24-13.48q5.82-5.15 12.45-6.5t12.19-.03q5.55 1.34 9.06 4.13 3.5 2.78 4.82 5.52l1.3 2.75q0 0 0 0-.01.01-2.3-1.33l-5.49-3.22q-3.19-1.86-7.74-3.23-4.54-1.36-10.13-.44-5.58.92-10.61 5.08-5.04 4.16-7.32 11.18-2.28 7.01-.23 14.67 2.06 7.67 8.09 12.83 6.02 5.15 13.58 5.65 7.57.48 13.63-3.58 6.06-4.06 8.66-10.62t1.61-12.95q-.98-6.4-4.16-10.88-3.18-4.5-6.66-6.92t-9.53-5z"
          class="on-right" pointer-events="none"/>
    <path fill="#4263eb" stroke="#4263eb" stroke-linecap="round" stroke-linejoin="round" stroke-width="6"
          d="m506.3 171.4-6.12 3.8q-6.1 3.79-12.06 3.31t-12.33-4.16q-6.38-3.7-11.22-10.93-4.82-7.22-5.92-16.7-1.1-9.45 2.79-18.38 3.9-8.92 11.97-14 8.08-5.1 17.49-4.44 9.4.65 16.81 6.33t10.96 13.76q3.55 8.08 3.36 15.8-.18 7.72-2.67 13.5-2.47 5.79-6.04 8.92t-6.62 3.9l-3.04.76h-.02l1.63-2.16q1.61-2.13 3.94-5.17t4.66-7.72q2.33-4.68 2.69-11.23.37-6.53-2.44-13.48-2.8-6.94-8.83-11.91t-13.69-5.8-14.32 3.12-9.97 11.21q-3.31 7.28-2.48 15.12.83 7.83 4.74 13.7 3.9 5.86 8.88 8.91 4.97 3.04 9.37 3.94 4.4.9 11.43.43z"
          class="on-right" pointer-events="none"/>
    <path fill="#0e98ad" stroke="#0e98ad" stroke-linecap="round" stroke-linejoin="round" stroke-width="5"
          d="m601.29 377.07-3.18 4.78q-3.17 4.8-7.9 5.67-4.72.87-10.35-1.28-5.6-2.13-10.42-7.81-4.83-5.69-7.05-13.81-2.22-8.13-.54-16.33 1.69-8.18 7.22-13.34t12.7-5.1q7.14.04 13.13 4.71 5.99 4.68 9.15 11.5 3.15 6.81 3.49 13.29.34 6.47-1.3 11.16t-4.38 6.93l-2.74 2.22-.02-.01.93-2.81q.93-2.83 2-6.87 1.1-4.03.89-9.62-.22-5.59-2.78-11.5-2.56-5.92-7.3-9.97t-10.2-4.39q-5.47-.32-9.65 3.5-4.18 3.83-5.54 10.5-1.36 6.68.52 13.4 1.88 6.73 5.66 11.1 3.78 4.39 10.55 6.06 6.78 1.69 11.93-.16z"
          class="on-right" pointer-events="none"/>
</svg>
