<svg xmlns="http://www.w3.org/2000/svg" viewBox="0 0 40 40" id="esn-star-color">
    <path fill="#7dbb48" d="M23 1v11.76L21.66 16h-3.32L17 12.76V1a1 1 0 0 1 1-1h4a1 1 0 0 1 1 1z"/>
    <path fill="#28abe3"
          d="M8.71 4.69 17 12.76 18.35 16 16 18.35 12.76 17 4.69 8.71a1 1 0 0 1 0-1.41l2.6-2.6a1 1 0 0 1 1.42-.01z"
         />
    <path fill="#e32185" d="M1 17h11.76L16 18.34v3.32L12.76 23H1a1 1 0 0 1-1-1v-4a1 1 0 0 1 1-1z"/>
    <path fill="#ef7b24"
          d="M4.47 31.29 12.76 23 16 21.65 18.35 24 17 27.24l-8.32 8.1a1 1 0 0 1-1.38 0l-2.81-2.62a1 1 0 0 1-.02-1.43z"
         />
    <path fill="#28abe3" d="M17 39V27.24L18.34 24h3.32L23 27.24V39a1 1 0 0 1-1 1h-4a1 1 0 0 1-1-1z"/>
    <path fill="#7dbb48"
          d="M31.29 35.31 23 27.24 21.65 24 24 21.65 27.24 23l8.07 8.29a1 1 0 0 1 0 1.41l-2.6 2.6a1 1 0 0 1-1.42.01z"
         />
    <path fill="#ef7b24" d="M39 23H27.24L24 21.66v-3.32L27.24 17H39a1 1 0 0 1 1 1v4a1 1 0 0 1-1 1z"/>
    <path fill="#e32185"
          d="M35.31 8.71 27.24 17 24 18.35 21.65 16 23 12.76l8.29-8.07a1 1 0 0 1 1.41 0l2.6 2.6a1 1 0 0 1 .01 1.42z"
         />
</svg>
