<?xml version="1.0" encoding="UTF-8"?>
<svg id="panda" xmlns="http://www.w3.org/2000/svg" viewBox="0 0 212 212">
    <g transform="matrix(1.3582 0 0 1.3582 -38.064 -16.258)">
        <polyline fill="#7dbb48" fill-rule="evenodd" class="cls-3"
                  points="97.55 146.41 105.47 159.07 113.38 146.41 97.55 146.41"/>
        <polyline fill="#7dbb48" fill-rule="evenodd" class="cls-3"
                  points="86.47 38.74 133.96 43.49 114.97 27.66 86.47 38.74"/>
        <polygon fill="#ef7b24" class="cls-4" fill-rule="evenodd" points="86.47 27.66 73.8 43.49 102.3 35.58"/>
        <polyline class="cls-5" fill="#e32185" fill-rule="evenodd"
                  points="61.13 32.41 32.63 43.49 51.63 90.99 57.97 73.57 61.13 32.41"/>
        <polyline fill="#7dbb48" fill-rule="evenodd" class="cls-3"
                  points="57.97 73.57 38.97 86.24 46.88 105.24 57.97 73.57"/>
        <polyline class="cls-4" fill="#ef7b24" fill-rule="evenodd"
                  points="51.63 90.99 42.13 119.49 81.72 138.49 51.63 90.99"/>
        <polyline class="cls-6" fill="#28abe3" fill-rule="evenodd"
                  points="57.97 119.49 84.88 152.74 113.38 146.41 57.97 119.49"/>
        <polyline fill="#7dbb48" fill-rule="evenodd" class="cls-3"
                  points="129.21 138.49 164.05 127.41 159.3 90.99 129.21 138.49"/>
        <polyline class="cls-4" fill="#ef7b24" fill-rule="evenodd"
                  points="152.96 73.57 175.13 87.82 152.96 119.49 152.96 73.57"/>
        <polyline class="cls-6" fill="#28abe3" fill-rule="evenodd"
                  points="159.3 90.99 179.88 46.66 149.8 32.41 133.96 43.49"/>
        <polyline class="cls-5" fill="#e32185" fill-rule="evenodd"
                  points="164.05 45.08 152.96 22.91 124.46 38.74 133.96 43.48 164.05 45.08"/>
        <polyline class="cls-5" fill="#e32185" fill-rule="evenodd"
                  points="97.55 146.41 129.21 154.32 152.96 119.49 97.55 146.41"/>
        <polygon class="cls-6" fill="#28abe3" fill-rule="evenodd"
                 points="54.8 21.33 46.88 45.08 73.8 43.54 86.47 38.74"/>
        <path d="m167.25 57.9-1.7-13.56-6.71-6.72-8.6-6.89-10.88 1.81-5.94 8.91-8.42-4.23-19.53-3.22-19.47 3.22-8.46 4.23-5.94-8.91-10.9-1.81-8.47 6.78-6.85 6.83-1.69 13.56 3.45 10.36 8.92 5.94-6.06 16.68 6.55 29.5 0.44 0.35 23.75 19 0.13 0.1 16.13 8.09h0.07l7.78 3.11h1.18l7.78-3.11h0.06l0.19-0.1 15.83-7.91 0.15-0.08 0.14-0.1 23.74-19 0.44-0.35 6.55-29.5-6.03-16.68 8.92-5.94zm-53 79.18-8.78 2.92-8.73-2.91-2.95-2.36 3.5 0.58 0.85-0.09 7.33-2.93 7.33 2.93 0.84 0.09 3.51-0.58zm-1.42-17.59h-14.67l-3 5.9 8.67 1.73v2.38l-6.51 2.6-8.2-1.36-4.29-10v-7.18l7.48-13.47 5.56-2.78h15.13l5.56 2.78 3.59 6.47 3.89 7v7.18l-4.28 10-8.21 1.36-6.51-2.6v-2.38l8.68-1.73zm44.82-28.39-6.08 27.38-33.5 19.79-0.18-0.09 6.29-5 5-11.74v-7.44l6.09-4.57 3.41-10.22v-8.88l-7.61-7.6-11.24 5.62-1.36 8.18-4.75-2.37h-16.54l-4.75 2.37-1.37-8.18-11.24-5.62-7.6 7.6v8.83l3.4 10.22 6.1 4.57v7.45l5 11.74 6.3 5-0.19 0.09-33.46-19.75-6.09-27.38 6.12-16.82 13.73-21.74 4.94-7.83 8.93-4.45 18.51-3.08 18.49 3.08 8.89 4.45 18.68 29.57z"/>

        <polygon class="cls-7" fill="#ffffff"
                 points="93.79 134.72 97.29 135.3 98.14 135.21 105.47 132.28 112.8 135.21 113.64 135.3 117.15 134.72 114.2 137.08 105.47 139.99 96.74 137.08"/>
        <polygon class="cls-7" fill="#ffffff"
                 points="107.05 129.5 107.05 127.12 115.73 125.39 112.78 119.49 98.16 119.49 95.21 125.39 103.88 127.12 103.88 129.5 97.37 132.1 89.17 130.74 84.88 120.75 84.88 113.57 92.36 100.1 97.92 97.32 113.01 97.32 118.57 100.1 122.16 106.57 126.05 113.57 126.05 120.75 121.77 130.74 113.56 132.1"/>
        <polygon class="cls-7" fill="#ffffff"
                 points="124.18 133.14 129.22 121.4 129.22 113.95 135.31 109.38 138.72 99.16 138.72 90.33 131.11 82.73 119.87 88.35 118.51 96.53 113.76 94.16 97.18 94.16 92.43 96.53 91.06 88.35 79.82 82.73 72.22 90.33 72.22 99.16 75.62 109.38 81.72 113.95 81.72 121.4 86.75 133.14 93.05 138.18 92.86 138.27 59.37 118.48 53.28 91.1 59.4 74.28 73.13 52.54 78.07 44.71 86.96 40.26 105.47 37.18 123.97 40.26 132.86 44.71 151.54 74.28 157.65 91.1 151.57 118.48 118.07 138.27 117.89 138.18"/>
    </g>
</svg>
