<svg viewBox="0 0 6.667 10" xmlns="http://www.w3.org/2000/svg"><path style="fill:#7b3ff4;fill-opacity:1;stroke-width:.027779" d="M86.627 137.14a1.248 1.248 0 0 0-1.247 1.253v2.995l1.247 1.248 1.248-1.248v-3.001c0-.689-.558-1.248-1.248-1.248zm0 10.993a1.248 1.248 0 0 0 1.248-1.254v-2.995l-1.248-1.248-1.248 1.248v2.995a1.248 1.248 0 0 0 1.248 1.254z" transform="translate(-49.188 -83.146) scale(.6063)"/><path style="fill:#f43f5e;fill-opacity:1;stroke-width:.0277825" d="M92.125 142.637a1.248 1.248 0 0 0-1.254-1.248h-2.996l-1.248 1.248 1.248 1.248h3.002c.69 0 1.248-.559 1.248-1.248z" transform="translate(-49.188 -83.146) scale(.6063)"/><path style="fill:#f43f5e;fill-opacity:1;stroke-width:.0277791" d="M81.13 142.637a1.248 1.248 0 0 0 1.254 1.247h2.995l1.248-1.247-1.248-1.248h-3.001c-.69 0-1.248.559-1.248 1.248z" transform="translate(-49.188 -83.146) scale(.6063)"/></svg>
