<svg viewBox="0 0 6.667 10" xmlns="http://www.w3.org/2000/svg"><g transform="matrix(.66774 0 0 .66774 -31.633 -138.383)"><path style="fill:#f43f5e;stroke-width:.349196" d="M47.372 207.24a4.992 4.992 0 0 0 1.463 3.529 4.992 4.992 0 0 0 3.53 1.462v4.992a4.992 4.992 0 0 0 3.53-1.462 4.992 4.992 0 0 0 1.461-3.53 4.992 4.992 0 0 0-1.462-3.53 4.992 4.992 0 0 0-3.53-1.462z"/><path style="fill:#fff;fill-opacity:1;stroke-width:.093595" d="M52.365 211.919h4.992v.624h-4.992z"/><path style="fill:#7b3ff4;stroke-width:.349196" d="M52.364 207.24a4.992 4.992 0 0 0-3.53 1.461 4.992 4.992 0 0 0-1.462 3.53v9.984a4.992 4.992 0 0 0 3.53-1.462 4.992 4.992 0 0 0 1.462-3.53v-4.992z"/><circle style="fill:#f43f5e;fill-opacity:1;stroke-width:.0436495" cx="50.493" cy="209.735" r=".624"/></g></svg>
